<svg width="15" height="15" viewBox="0 0 15 15" fill="none" xmlns="http://www.w3.org/2000/svg">
    <path d="M0.796063 0.742615H14.5164C14.7702 0.742615 14.9759 0.996402 14.9759 1.20208V3.12967C14.9759 3.38345 14.7702 3.58914 14.5164 3.58914H0.796063C0.542276 3.58914 0.336594 3.33535 0.336594 3.12967V1.20208C0.336594 0.948297 0.542276 0.742615 0.796063 0.742615Z" fill="#83848B"/>
    <path d="M1.14951 4.40241V13.7998C1.14951 14.0037 1.23047 14.1992 1.37461 14.3433C1.51876 14.4874 1.71427 14.5684 1.91812 14.5684H13.3934C13.5972 14.5684 13.7927 14.4875 13.9369 14.3433C14.081 14.1992 14.162 14.0037 14.162 13.7998V4.40241H9.6889V10.9087C9.68799 11.0728 9.58869 11.2204 9.43674 11.2828C9.38845 11.3055 9.33563 11.3168 9.28226 11.3153C9.17424 11.3159 9.07022 11.2736 8.99362 11.1973L7.65569 9.85542L6.31776 11.1973C6.20086 11.3128 6.02603 11.3466 5.87463 11.2828C5.72268 11.2204 5.62338 11.0728 5.62247 10.9087V4.4024L1.14951 4.40241Z" fill="#83848B"/>
    <path d="M7.94451 8.99361L8.87586 9.92896V4.4024H6.43583V9.92896L7.36718 8.99361C7.44343 8.91664 7.54746 8.87325 7.65584 8.87325C7.76422 8.87325 7.86825 8.91664 7.9445 8.99361H7.94451Z" fill="#83848B"/>
</svg>
