<svg width="16" height="17" viewBox="0 0 16 17" fill="none" xmlns="http://www.w3.org/2000/svg">
    <path fill-rule="evenodd" clip-rule="evenodd" d="M6.2892 15.0961V10.7007H9.47163V15.0961C9.47163 15.5805 9.82885 15.9752 10.2672 15.9752H12.6541C13.0924 15.9752 13.4497 15.5805 13.4497 15.0961V8.94258H14.8014C15.1682 8.94258 15.3416 8.44151 15.0655 8.17603L8.41506 1.56007C8.11035 1.26119 7.65049 1.26119 7.34577 1.56007L0.695295 8.17603C0.424789 8.44151 0.592662 8.94258 0.959437 8.94258H2.31117V15.0961C2.31117 15.5805 2.6684 15.9752 3.10678 15.9752H5.4936C5.93198 15.9752 6.2892 15.5805 6.2892 15.0961" fill="#BFB5FF"/>
    <path d="M6.2892 15.0961V10.7007H9.47163V15.0961C9.47163 15.5805 9.82885 15.9752 10.2672 15.9752H12.6541C13.0924 15.9752 13.4497 15.5805 13.4497 15.0961V8.94258H14.8014C15.1682 8.94258 15.3416 8.44151 15.0655 8.17603L8.41506 1.56007C8.11035 1.26119 7.65049 1.26119 7.34577 1.56007L0.695295 8.17603C0.424789 8.44151 0.592662 8.94258 0.959437 8.94258H2.31117V15.0961C2.31117 15.5805 2.6684 15.9752 3.10678 15.9752H5.4936C5.93198 15.9752 6.2892 15.5805 6.2892 15.0961" stroke="#151921" stroke-width="0.813262"/>
</svg>

