<svg width="17" height="17" viewBox="0 0 17 17" fill="none" xmlns="http://www.w3.org/2000/svg">
    <path fill-rule="evenodd" clip-rule="evenodd" d="M14.1408 13.1795H2.31647C2.59192 12.8363 3.00782 12.6373 3.44757 12.6373H14.5252C14.3653 12.7929 14.2341 12.9773 14.1408 13.1795ZM14.5252 15.3483H3.3798C2.95415 15.3526 2.5537 15.1503 2.30346 14.806H9.34443C9.49354 14.806 9.61555 14.6843 9.61555 14.5349C9.61555 14.3855 9.49354 14.2638 9.34443 14.2638H2.05349C2.01445 14.0848 2.01445 13.8994 2.05701 13.7215H13.9746C13.9469 13.9016 13.9469 14.0838 13.9746 14.2638H11.5134C11.364 14.2638 11.2423 14.3855 11.2423 14.5349C11.2423 14.6843 11.364 14.806 11.5134 14.806H14.1408C14.2341 15.0083 14.3653 15.1926 14.5252 15.3483ZM4.8919 8.93821L7.48978 4.77596H8.25977C8.40916 4.77596 8.53089 4.65423 8.53089 4.50484C8.53089 4.35545 8.40916 4.23372 8.25977 4.23372H7.58197V3.69147H7.98865C8.13804 3.69147 8.25977 3.56974 8.25977 3.42035C8.25977 3.27097 8.13804 3.14923 7.98865 3.14923H7.58197V2.60699H9.47981V4.55147C9.47981 4.60109 9.49337 4.65097 9.51994 4.69435L12.1696 8.93821C12.4302 9.35547 12.444 9.8828 12.2057 10.3139C11.9663 10.7439 11.5121 11.0117 11.0195 11.0117H6.04173C5.54964 11.0117 5.09524 10.7439 4.85557 10.3139C4.61753 9.8828 4.63135 9.35547 4.8919 8.93821ZM15.8509 12.6382C16.2999 12.6382 16.6643 12.2738 16.6643 11.8248C16.6643 11.3759 16.2999 11.0115 15.8509 11.0115H12.3477C12.4789 10.8833 12.5901 10.7361 12.679 10.5753C13.02 9.97372 13.0022 9.23333 12.6305 8.64991L10.0221 4.47214V2.60719H10.1577C10.6817 2.60719 11.1066 2.18264 11.1066 1.65832C11.1066 1.134 10.6817 0.709442 10.1577 0.709442H6.90441C6.38009 0.709442 5.95553 1.134 5.95553 1.65832C5.95553 2.18264 6.38009 2.60719 6.90441 2.60719H7.03996V4.47214L4.43137 8.64991C4.05968 9.23333 4.04178 9.97372 4.38257 10.5753C4.47149 10.7361 4.58319 10.8833 4.71413 11.0115H3.47192C1.87726 10.9904 0.536638 12.206 0.403253 13.7958C0.353369 14.6186 0.644539 15.4243 1.20763 16.0259C1.77018 16.6275 2.55612 16.9705 3.38001 16.9759H15.8509C16.2999 16.9759 16.6643 16.6115 16.6643 16.1626C16.6643 15.7136 16.2999 15.3492 15.8509 15.3492C15.1022 15.3492 14.4954 14.7425 14.4954 13.9937C14.4954 13.2449 15.1022 12.6382 15.8509 12.6382Z" fill="#83848B"/>
    <path fill-rule="evenodd" clip-rule="evenodd" d="M10.6983 14.5342C10.6983 14.6834 10.5767 14.805 10.4275 14.805C10.2783 14.805 10.1567 14.6834 10.1567 14.5342C10.1567 14.385 10.2783 14.2634 10.4275 14.2634C10.5767 14.2634 10.6983 14.385 10.6983 14.5342Z" fill="#83848B"/>
    <path fill-rule="evenodd" clip-rule="evenodd" d="M6.04186 10.4688H11.0277C11.3232 10.4688 11.5943 10.3078 11.7361 10.0483C11.8792 9.78996 11.8686 9.47332 11.7109 9.22444L9.97825 6.45108C9.93488 6.3833 9.86385 6.33667 9.78333 6.3261C9.05895 6.2285 8.6279 6.59503 8.2489 6.91683C7.82517 7.27794 7.51719 7.53847 6.83293 7.26953C6.71229 7.22101 6.57349 7.26655 6.50572 7.37879L5.34838 9.22987C5.19169 9.48064 5.18301 9.79647 5.32832 10.0548C5.47228 10.3132 5.74636 10.4721 6.04186 10.4688Z" fill="#83848B"/>
</svg>
