<svg width="16" height="16" viewBox="0 0 16 16" fill="none" xmlns="http://www.w3.org/2000/svg">
    <path fill-rule="evenodd" clip-rule="evenodd" d="M6.26692 5.97884C6.22564 5.88081 6.14825 5.80342 6.04455 5.7673C6.00895 5.75698 5.96767 5.74666 5.92639 5.75182C5.87428 5.75182 5.82321 5.76214 5.7711 5.78278C5.63231 5.84469 5.53944 5.984 5.53944 6.13878C5.53944 6.29356 5.63231 6.43287 5.7711 6.49478C5.86448 6.53089 5.97283 6.53089 6.06518 6.49478C6.15289 6.4535 6.2308 6.37611 6.26124 6.28324C6.30768 6.18521 6.30768 6.07686 6.26692 5.97884V5.97884ZM9.96481 9.65114C9.89773 9.57891 9.79919 9.53763 9.696 9.53763C9.59849 9.53763 9.49994 9.57891 9.42823 9.65114C9.2786 9.80076 9.2786 10.0484 9.42823 10.198C9.49994 10.2703 9.59849 10.3064 9.696 10.3064C9.79919 10.3064 9.89773 10.2703 9.96481 10.198C10.1191 10.0484 10.1191 9.80076 9.96481 9.65114V9.65114ZM9.96481 9.65114C9.89773 9.57891 9.79919 9.53763 9.696 9.53763C9.59849 9.53763 9.49994 9.57891 9.42823 9.65114C9.2786 9.80076 9.2786 10.0484 9.42823 10.198C9.49994 10.2703 9.59849 10.3064 9.696 10.3064C9.79919 10.3064 9.89773 10.2703 9.96481 10.198C10.1191 10.0484 10.1191 9.80076 9.96481 9.65114V9.65114ZM6.26692 5.97884C6.22564 5.88081 6.14825 5.80342 6.04455 5.7673C6.00895 5.75698 5.96767 5.74666 5.92639 5.75182C5.87428 5.75182 5.82321 5.76214 5.7711 5.78278C5.63231 5.84469 5.53944 5.984 5.53944 6.13878C5.53944 6.29356 5.63231 6.43287 5.7711 6.49478C5.86448 6.53089 5.97283 6.53089 6.06518 6.49478C6.15289 6.4535 6.2308 6.37611 6.26124 6.28324C6.30768 6.18521 6.30768 6.07686 6.26692 5.97884V5.97884ZM5.7711 6.49478C5.86448 6.53089 5.97283 6.53089 6.06518 6.49478C6.15289 6.4535 6.2308 6.37611 6.26124 6.28324C6.30768 6.18521 6.30768 6.07686 6.26692 5.97884C6.22564 5.88081 6.14825 5.80342 6.04455 5.7673C6.00895 5.75698 5.96767 5.74666 5.92639 5.75182C5.87428 5.75182 5.82321 5.76214 5.7711 5.78278C5.63231 5.84469 5.53944 5.984 5.53944 6.13878C5.53944 6.29356 5.63231 6.43287 5.7711 6.49478V6.49478ZM9.696 9.53763C9.59849 9.53763 9.49994 9.57891 9.42823 9.65114C9.2786 9.80076 9.2786 10.0484 9.42823 10.198C9.49994 10.2703 9.59849 10.3064 9.696 10.3064C9.79919 10.3064 9.89773 10.2703 9.96481 10.198C10.1191 10.0484 10.1191 9.80076 9.96481 9.65114C9.89773 9.57891 9.79919 9.53763 9.696 9.53763V9.53763ZM10.7671 11.0112C10.4838 11.2945 10.0975 11.4439 9.69564 11.4387C9.29435 11.4387 8.90799 11.2791 8.62414 10.9957C8.228 10.5527 8.11982 9.91907 8.35163 9.37301C8.57778 8.82181 9.10374 8.4509 9.69564 8.42C10.0975 8.42 10.4838 8.57969 10.7671 8.86817C11.3441 9.46574 11.3441 10.4136 10.7671 11.0112V11.0112ZM6.20377 10.4857C6.10074 10.5939 5.95136 10.6506 5.80661 10.6506C5.57481 10.6506 5.37443 10.5115 5.28171 10.3003C5.19929 10.0891 5.24565 9.85213 5.39967 9.6873L9.43304 5.63332C9.6602 5.41182 10.0151 5.41182 10.2371 5.63332C10.4586 5.85482 10.4586 6.2154 10.2371 6.4369L6.20377 10.4857ZM4.51899 5.58715C4.81778 4.80928 5.69404 4.42292 6.47139 4.72171C7.04887 4.94322 7.43008 5.48927 7.43987 6.10745C7.45068 6.72047 7.09008 7.28198 6.52342 7.5241C6.33797 7.60652 6.1314 7.65288 5.92585 7.65288C5.73989 7.65288 5.55443 7.61682 5.37465 7.54985C4.60657 7.23046 4.23103 6.36502 4.51899 5.58715V5.58715ZM14.765 8.24516C14.8057 7.73523 14.9087 7.23044 15.0787 6.74626C15.295 6.26208 15.3677 5.72124 15.2801 5.19585C15.1307 4.80438 14.6306 4.49533 14.1005 4.16567C13.6576 3.91328 13.2455 3.60938 12.8798 3.25397C12.5651 2.87796 12.2977 2.45559 12.0865 2.01261C11.896 1.49752 11.5509 1.05455 11.0976 0.735196C10.5619 0.606424 10.0004 0.64248 9.48536 0.838213C9.01663 0.987588 8.52215 1.06485 8.03281 1.07515C7.51773 1.03395 7.00728 0.925778 6.52361 0.750648C6.03943 0.539463 5.50374 0.472501 4.97835 0.560066C4.58637 0.709441 4.27783 1.20908 3.94817 1.73962C3.70093 2.18259 3.39188 2.58436 3.03596 2.95007C2.66046 3.26942 2.24272 3.54242 1.7946 3.7536C1.27951 3.94934 0.83705 4.29445 0.517181 4.74257C0.388409 5.27826 0.42498 5.83971 0.620713 6.35479C0.764423 6.82867 0.846836 7.31801 0.857653 7.81249C0.816446 8.32758 0.707763 8.83236 0.533148 9.31654C0.321448 9.80072 0.255002 10.3364 0.342566 10.8618C0.491942 11.2533 0.996727 11.5623 1.5216 11.892C1.96973 12.1444 2.37664 12.4483 2.74236 12.8037C3.06171 13.1797 3.3244 13.6021 3.53559 14.045C3.73132 14.5601 4.07695 15.0031 4.52456 15.3225C5.06025 15.4512 5.62221 15.41 6.13729 15.2143C6.5849 15.0855 7.049 15.0031 7.51773 14.9825H7.59448C8.10441 15.0186 8.60971 15.1216 9.08823 15.2916C9.57807 15.5079 10.1184 15.58 10.6443 15.4976C11.0409 15.3534 11.3443 14.8486 11.6745 14.318C11.9264 13.8751 12.2359 13.463 12.5862 13.0973C12.9673 12.7779 13.3841 12.5101 13.8275 12.2937C14.3473 12.1032 14.7908 11.7581 15.1044 11.3048C15.2332 10.7691 15.1977 10.2076 15.0019 9.69256C14.8577 9.22383 14.7799 8.73965 14.765 8.24516V8.24516ZM6.26692 5.97884C6.22564 5.88081 6.14825 5.80342 6.04455 5.7673C6.00895 5.75698 5.96767 5.74666 5.92639 5.75182C5.87428 5.75182 5.82321 5.76214 5.7711 5.78278C5.63231 5.84469 5.53944 5.984 5.53944 6.13878C5.53944 6.29356 5.63231 6.43287 5.7711 6.49478C5.86448 6.53089 5.97283 6.53089 6.06518 6.49478C6.15289 6.4535 6.2308 6.37611 6.26124 6.28324C6.30768 6.18521 6.30768 6.07686 6.26692 5.97884V5.97884ZM9.96481 9.65114C9.89773 9.57891 9.79919 9.53763 9.696 9.53763C9.59849 9.53763 9.49994 9.57891 9.42823 9.65114C9.2786 9.80076 9.2786 10.0484 9.42823 10.198C9.49994 10.2703 9.59849 10.3064 9.696 10.3064C9.79919 10.3064 9.89773 10.2703 9.96481 10.198C10.1191 10.0484 10.1191 9.80076 9.96481 9.65114V9.65114ZM9.96481 9.65114C9.89773 9.57891 9.79919 9.53763 9.696 9.53763C9.59849 9.53763 9.49994 9.57891 9.42823 9.65114C9.2786 9.80076 9.2786 10.0484 9.42823 10.198C9.49994 10.2703 9.59849 10.3064 9.696 10.3064C9.79919 10.3064 9.89773 10.2703 9.96481 10.198C10.1191 10.0484 10.1191 9.80076 9.96481 9.65114V9.65114ZM6.26692 5.97884C6.22564 5.88081 6.14825 5.80342 6.04455 5.7673C6.00895 5.75698 5.96767 5.74666 5.92639 5.75182C5.87428 5.75182 5.82321 5.76214 5.7711 5.78278C5.63231 5.84469 5.53944 5.984 5.53944 6.13878C5.53944 6.29356 5.63231 6.43287 5.7711 6.49478C5.86448 6.53089 5.97283 6.53089 6.06518 6.49478C6.15289 6.4535 6.2308 6.37611 6.26124 6.28324C6.30768 6.18521 6.30768 6.07686 6.26692 5.97884V5.97884ZM9.96481 9.65114C9.89773 9.57891 9.79919 9.53763 9.696 9.53763C9.59849 9.53763 9.49994 9.57891 9.42823 9.65114C9.2786 9.80076 9.2786 10.0484 9.42823 10.198C9.49994 10.2703 9.59849 10.3064 9.696 10.3064C9.79919 10.3064 9.89773 10.2703 9.96481 10.198C10.1191 10.0484 10.1191 9.80076 9.96481 9.65114V9.65114ZM9.96481 9.65114C9.89773 9.57891 9.79919 9.53763 9.696 9.53763C9.59849 9.53763 9.49994 9.57891 9.42823 9.65114C9.2786 9.80076 9.2786 10.0484 9.42823 10.198C9.49994 10.2703 9.59849 10.3064 9.696 10.3064C9.79919 10.3064 9.89773 10.2703 9.96481 10.198C10.1191 10.0484 10.1191 9.80076 9.96481 9.65114V9.65114ZM6.26692 5.97884C6.22564 5.88081 6.14825 5.80342 6.04455 5.7673C6.00895 5.75698 5.96767 5.74666 5.92639 5.75182C5.87428 5.75182 5.82321 5.76214 5.7711 5.78278C5.63231 5.84469 5.53944 5.984 5.53944 6.13878C5.53944 6.29356 5.63231 6.43287 5.7711 6.49478C5.86448 6.53089 5.97283 6.53089 6.06518 6.49478C6.15289 6.4535 6.2308 6.37611 6.26124 6.28324C6.30768 6.18521 6.30768 6.07686 6.26692 5.97884V5.97884ZM6.26692 5.97884C6.22564 5.88081 6.14825 5.80342 6.04455 5.7673C6.00895 5.75698 5.96767 5.74666 5.92639 5.75182C5.87428 5.75182 5.82321 5.76214 5.7711 5.78278C5.63231 5.84469 5.53944 5.984 5.53944 6.13878C5.53944 6.29356 5.63231 6.43287 5.7711 6.49478C5.86448 6.53089 5.97283 6.53089 6.06518 6.49478C6.15289 6.4535 6.2308 6.37611 6.26124 6.28324C6.30768 6.18521 6.30768 6.07686 6.26692 5.97884V5.97884Z" fill="#83848B"/>
</svg>
