<svg width="25" height="23" viewBox="0 0 25 23" fill="none" xmlns="http://www.w3.org/2000/svg">
    <path d="M17.1685 9.05191H16.7223L13.1472 4.4582C13.0375 4.31716 12.8586 4.31716 12.7495 4.4582C12.6397 4.59923 12.6397 4.82837 12.7495 4.96925L15.9267 9.0517H5.46967L8.64621 4.97003C8.75598 4.82899 8.75598 4.59985 8.64621 4.45898C8.53645 4.31794 8.35812 4.31794 8.24849 4.45898L4.67409 9.05187H4.22788C3.45266 9.05187 2.82133 9.86308 2.82133 10.8592C2.82133 11.7209 3.2939 12.4409 3.92298 12.621L5.10785 19.2179C5.25629 20.0426 5.81955 20.6189 6.47836 20.6189H14.9177C15.5765 20.6189 16.1397 20.0426 16.2882 19.2179L17.473 12.621C18.1021 12.4409 18.5747 11.7209 18.5747 10.8592C18.5747 9.86308 17.9434 9.05187 17.1681 9.05187L17.1685 9.05191ZM15.7399 19.0556C15.6522 19.5494 15.3134 19.8957 14.918 19.8957H6.47872C6.08324 19.8957 5.74506 19.5494 5.65678 19.0556L4.50906 12.6666H16.888L15.7399 19.0556ZM17.1685 11.9436H4.23113L4.22159 11.943C3.75969 11.9378 3.38444 11.4542 3.38444 10.8593C3.38444 10.2614 3.76307 9.77486 4.22837 9.77486H17.1686C17.6339 9.77486 18.0125 10.2614 18.0125 10.8593C18.0125 11.4571 17.6339 11.9437 17.1686 11.9437L17.1685 11.9436Z" fill="#151921" stroke="#151921" stroke-width="0.325305"/>
    <path d="M10.6977 18.4489C10.8529 18.4489 10.979 18.2862 10.979 18.0874V14.473C10.979 14.2743 10.8529 14.1116 10.6977 14.1116C10.5425 14.1116 10.4164 14.2743 10.4164 14.473V18.0874C10.4164 18.2862 10.5425 18.4489 10.6977 18.4489Z" fill="#151921" stroke="#151921" stroke-width="0.325305"/>
    <path d="M13.5108 18.4489C13.6655 18.4489 13.7921 18.2862 13.7921 18.0874V14.473C13.7921 14.2743 13.6655 14.1116 13.5108 14.1116C13.3561 14.1116 13.2295 14.2743 13.2295 14.473V18.0874C13.2295 18.2862 13.3561 18.4489 13.5108 18.4489Z" fill="#151921" stroke="#151921" stroke-width="0.325305"/>
    <path d="M7.88493 18.4489C8.04014 18.4489 8.16622 18.2862 8.16622 18.0874V14.473C8.16622 14.2743 8.04014 14.1116 7.88493 14.1116C7.72972 14.1116 7.60364 14.2743 7.60364 14.473V18.0874C7.60364 18.2862 7.72972 18.4489 7.88493 18.4489Z" fill="#151921" stroke="#151921" stroke-width="0.325305"/>
    <circle cx="18.8306" cy="5.97973" r="4.88024" fill="#151921" stroke="#0BAB7C" stroke-width="1.62652"/>
    <path d="M19.9816 8.08951C20.0792 8.08951 20.1551 8.11662 20.2094 8.17084C20.2657 8.22506 20.2939 8.29663 20.2939 8.38554V8.91254H17.0214V8.61976C17.0214 8.56338 17.0333 8.50265 17.0571 8.43759C17.081 8.37036 17.1211 8.30964 17.1775 8.25542L18.5763 6.85336C18.6956 6.73408 18.8008 6.62022 18.8919 6.51179C18.983 6.40118 19.0589 6.29383 19.1196 6.18973C19.1803 6.08347 19.2258 5.97612 19.2562 5.86768C19.2866 5.75925 19.3018 5.64539 19.3018 5.52611C19.3018 5.31575 19.2475 5.15635 19.1391 5.04791C19.0307 4.93731 18.8778 4.88201 18.6804 4.88201C18.5937 4.88201 18.5134 4.89502 18.4397 4.92104C18.3681 4.9449 18.3031 4.97851 18.2445 5.02189C18.1881 5.06526 18.1393 5.11623 18.0981 5.17478C18.0569 5.23334 18.0266 5.29731 18.007 5.36671C17.968 5.47515 17.9149 5.5478 17.8476 5.58467C17.7826 5.61937 17.6893 5.62696 17.5679 5.60744L17.0929 5.52286C17.1276 5.29298 17.1927 5.09129 17.2881 4.91779C17.3835 4.7443 17.5028 4.60008 17.646 4.48514C17.7891 4.37019 17.9528 4.28453 18.1372 4.22814C18.3215 4.16959 18.5199 4.14031 18.7325 4.14031C18.9558 4.14031 19.1586 4.17393 19.3408 4.24116C19.5251 4.30622 19.6824 4.39839 19.8125 4.51767C19.9426 4.63478 20.0434 4.77683 20.115 4.94382C20.1866 5.11081 20.2224 5.29515 20.2224 5.49683C20.2224 5.67033 20.1974 5.83081 20.1475 5.97829C20.0977 6.12576 20.0294 6.26672 19.9426 6.40118C19.858 6.53347 19.7593 6.66251 19.6466 6.78829C19.5338 6.91408 19.4145 7.04095 19.2887 7.1689L18.2868 8.19361C18.3974 8.16108 18.5069 8.13614 18.6154 8.11879C18.7238 8.09927 18.8257 8.08951 18.9211 8.08951H19.9816Z" fill="white"/>
</svg>
