<svg width="24" height="24" viewBox="0 0 24 24" fill="none" xmlns="http://www.w3.org/2000/svg">
    <g clip-path="url(#clip0_3_171)">
        <path fill-rule="evenodd" clip-rule="evenodd" d="M12.3089 1.28641C6.46985 1.28641 1.73639 6.01986 1.73639 11.8589C1.73639 17.6978 6.46985 22.4312 12.3089 22.4312C18.148 22.4312 22.8814 17.6978 22.8814 11.8589C22.8814 6.01986 18.148 1.28641 12.3089 1.28641ZM12.3091 2.08104C17.7011 2.08104 22.0875 6.46766 22.0875 11.8594C22.0875 17.251 17.7011 21.6376 12.3091 21.6376C6.91739 21.6376 2.53077 17.251 2.53077 11.8594C2.53077 6.46766 6.91739 2.08104 12.3091 2.08104Z" fill="#151921"/>
        <path d="M12.3089 1.12375C6.38001 1.12375 1.57374 5.93003 1.57374 11.8589H1.89904C1.89904 6.10969 6.55968 1.44906 12.3089 1.44906V1.12375ZM1.57374 11.8589C1.57374 17.7876 6.38002 22.5939 12.3089 22.5939V22.2686C6.55967 22.2686 1.89904 17.6079 1.89904 11.8589H1.57374ZM12.3089 22.5939C18.2378 22.5939 23.0441 17.7876 23.0441 11.8589H22.7188C22.7188 17.6079 18.0581 22.2686 12.3089 22.2686V22.5939ZM23.0441 11.8589C23.0441 5.93003 18.2378 1.12375 12.3089 1.12375V1.44906C18.0581 1.44906 22.7188 6.10969 22.7188 11.8589H23.0441ZM12.3091 2.24369C17.6113 2.24369 21.9249 6.55749 21.9249 11.8594H22.2502C22.2502 6.37783 17.7909 1.91839 12.3091 1.91839V2.24369ZM21.9249 11.8594C21.9249 17.1611 17.6113 21.4749 12.3091 21.4749V21.8002C17.7909 21.8002 22.2502 17.3408 22.2502 11.8594H21.9249ZM12.3091 21.4749C7.00722 21.4749 2.69343 17.1611 2.69343 11.8594H2.36812C2.36812 17.3408 6.82756 21.8002 12.3091 21.8002V21.4749ZM2.69343 11.8594C2.69343 6.55749 7.00722 2.24369 12.3091 2.24369V1.91839C6.82756 1.91839 2.36812 6.37783 2.36812 11.8594H2.69343Z" fill="#151921"/>
        <path fill-rule="evenodd" clip-rule="evenodd" d="M12.7068 6.3239C12.7068 6.21361 12.6184 6.12518 12.5081 6.12518C11.4151 6.12518 10.5265 7.01406 10.5265 8.10702C10.5265 8.21651 10.6157 8.30574 10.7252 8.30574C10.8353 8.30574 10.9239 8.21651 10.9239 8.10702C10.9239 7.23285 11.6349 6.52262 12.5081 6.52262C12.6184 6.52262 12.7068 6.4334 12.7068 6.3239Z" fill="#151921"/>
        <path d="M12.7068 6.3239C12.7068 6.21361 12.6184 6.12518 12.5081 6.12518C11.4151 6.12518 10.5265 7.01406 10.5265 8.10702C10.5265 8.21651 10.6157 8.30574 10.7252 8.30574C10.8353 8.30574 10.9239 8.21651 10.9239 8.10702C10.9239 7.23285 11.6349 6.52262 12.5081 6.52262C12.6184 6.52262 12.7068 6.4334 12.7068 6.3239" stroke="#151921" stroke-width="0.325305"/>
        <path fill-rule="evenodd" clip-rule="evenodd" d="M10.6536 8.72804C10.5768 8.80632 10.5768 8.93207 10.6536 9.00955C10.6918 9.0477 10.7415 9.06796 10.7949 9.06796C10.8469 9.06796 10.8974 9.0477 10.9338 9.00955C10.9719 8.9732 10.9936 8.92194 10.9936 8.86929C10.9936 8.81724 10.9719 8.76519 10.9338 8.72804C10.8601 8.65433 10.7273 8.65433 10.6536 8.72804Z" fill="#151921"/>
        <path d="M10.6536 8.72804C10.5768 8.80632 10.5768 8.93207 10.6536 9.00955C10.6918 9.0477 10.7415 9.06796 10.7949 9.06796C10.8469 9.06796 10.8974 9.0477 10.9338 9.00955C10.9719 8.9732 10.9936 8.92194 10.9936 8.86929C10.9936 8.81724 10.9719 8.76519 10.9338 8.72804C10.8601 8.65433 10.7273 8.65433 10.6536 8.72804" stroke="#151921" stroke-width="0.325305"/>
        <path fill-rule="evenodd" clip-rule="evenodd" d="M12.3765 17.2541C9.61398 17.2541 8.38707 16.6782 8.38707 16.4595C8.38707 14.7723 9.44631 13.2443 10.9913 12.6616C11.4112 13.052 11.8908 13.2568 12.3928 13.2568C12.8841 13.2568 13.3612 13.0482 13.7866 12.6509C15.3168 13.2413 16.3659 14.7731 16.3659 16.4595C16.3659 16.6782 15.139 17.2541 12.3765 17.2541ZM12.393 5.54421C13.7548 5.54421 14.8623 6.65173 14.8623 8.01273C14.8623 9.55551 13.5927 12.4227 12.393 12.4227C11.1933 12.4227 9.92448 9.55551 9.92448 8.01273C9.92448 6.65173 11.0318 5.54421 12.393 5.54421ZM14.2823 12.0009C15.1295 10.8416 15.6565 9.11361 15.6565 8.01253C15.6565 6.21323 14.1923 4.74963 12.3928 4.74963C10.5933 4.74963 9.12987 6.21323 9.12987 8.01253C9.12987 9.1152 9.65746 10.8456 10.5073 12.0048C8.76993 12.7573 7.59277 14.5195 7.59277 16.4596C7.59277 17.9337 11.2545 18.0487 12.3765 18.0487C13.4984 18.0487 17.1602 17.9337 17.1602 16.4596C17.1602 14.5258 15.9985 12.7637 14.2823 12.0009Z" fill="#151921"/>
        <path d="M10.9913 12.6616L11.102 12.5425L11.0282 12.4738L10.9339 12.5094L10.9913 12.6616ZM13.7866 12.6509L13.8451 12.4991L13.75 12.4624L13.6755 12.532L13.7866 12.6509ZM10.5073 12.0048L10.5719 12.1541L10.7589 12.0731L10.6384 11.9087L10.5073 12.0048ZM12.3765 17.0915C11.0057 17.0915 10.0227 16.9485 9.38717 16.7815C9.06865 16.6979 8.84201 16.6093 8.69875 16.5326C8.62654 16.4939 8.58137 16.4613 8.55671 16.4381C8.52493 16.4081 8.54973 16.4162 8.54973 16.4595H8.22442C8.22442 16.5576 8.28756 16.6314 8.33367 16.6749C8.3869 16.725 8.45916 16.7733 8.54513 16.8193C8.71824 16.9121 8.971 17.0085 9.30451 17.0962C9.97302 17.2718 10.9847 17.4168 12.3765 17.4168V17.0915ZM8.54973 16.4595C8.54973 14.8393 9.56767 13.3723 11.0487 12.8138L10.9339 12.5094C9.32495 13.1162 8.22442 14.7053 8.22442 16.4595H8.54973ZM10.8805 12.7807C11.3257 13.1945 11.8435 13.4194 12.3928 13.4194V13.0941C11.9381 13.0941 11.4968 12.9094 11.102 12.5425L10.8805 12.7807ZM12.3928 13.4194C12.9331 13.4194 13.4484 13.1894 13.8976 12.7697L13.6755 12.532C13.2741 12.907 12.8351 13.0941 12.3928 13.0941V13.4194ZM13.728 12.8026C15.1944 13.3684 16.2033 14.8392 16.2033 16.4595H16.5286C16.5286 14.7071 15.4392 13.1142 13.8451 12.4991L13.728 12.8026ZM16.2033 16.4595C16.2033 16.4162 16.2281 16.4081 16.1963 16.4381C16.1716 16.4613 16.1265 16.4939 16.0542 16.5326C15.911 16.6093 15.6844 16.6979 15.3658 16.7815C14.7303 16.9485 13.7473 17.0915 12.3765 17.0915V17.4168C13.7683 17.4168 14.78 17.2718 15.4485 17.0962C15.782 17.0085 16.0348 16.9121 16.2079 16.8193C16.2938 16.7733 16.3661 16.725 16.4193 16.6749C16.4654 16.6314 16.5286 16.5576 16.5286 16.4595H16.2033ZM12.393 5.70687C13.665 5.70687 14.6997 6.74159 14.6997 8.01273H15.025C15.025 6.56186 13.8446 5.38156 12.393 5.38156V5.70687ZM14.6997 8.01273C14.6997 8.75026 14.3927 9.82691 13.9329 10.7219C13.7037 11.168 13.4413 11.5593 13.1689 11.8366C12.8931 12.1175 12.6283 12.2601 12.393 12.2601V12.5854C12.7575 12.5854 13.1014 12.3696 13.401 12.0646C13.704 11.7561 13.984 11.3342 14.2222 10.8706C14.6971 9.94633 15.025 8.81798 15.025 8.01273H14.6997ZM12.393 12.2601C12.1577 12.2601 11.893 12.1175 11.6172 11.8367C11.3449 11.5593 11.0826 11.168 10.8535 10.722C10.3939 9.82694 10.0871 8.75028 10.0871 8.01273H9.76182C9.76182 8.81796 10.0895 9.9463 10.5642 10.8706C10.8023 11.3342 11.0821 11.7561 11.3851 12.0646C11.6847 12.3696 12.0285 12.5854 12.393 12.5854V12.2601ZM10.0871 8.01273C10.0871 6.74155 11.1216 5.70687 12.393 5.70687V5.38156C10.942 5.38156 9.76182 6.56191 9.76182 8.01273H10.0871ZM14.4136 12.0968C15.2804 10.9107 15.8191 9.14936 15.8191 8.01253H15.4938C15.4938 9.07785 14.9785 10.7725 14.1509 11.9049L14.4136 12.0968ZM15.8191 8.01253C15.8191 6.12335 14.2821 4.58698 12.3928 4.58698V4.91229C14.1025 4.91229 15.4938 6.30311 15.4938 8.01253H15.8191ZM12.3928 4.58698C10.5034 4.58698 8.96722 6.12341 8.96722 8.01253H9.29252C9.29252 6.30305 10.6831 4.91229 12.3928 4.91229V4.58698ZM8.96722 8.01253C8.96722 9.15093 9.50652 10.9148 10.3761 12.101L10.6384 11.9087C9.8084 10.7764 9.29252 9.07946 9.29252 8.01253H8.96722ZM10.4426 11.8556C8.64603 12.6337 7.43012 14.4543 7.43012 16.4596H7.75543C7.75543 14.5846 8.89382 12.8809 10.5719 12.1541L10.4426 11.8556ZM7.43012 16.4596C7.43012 16.9084 7.71279 17.236 8.09832 17.469C8.48286 17.7014 8.9971 17.8585 9.53173 17.9664C10.6038 18.1827 11.8128 18.2114 12.3765 18.2114V17.8861C11.8182 17.8861 10.6354 17.8572 9.59607 17.6475C9.07502 17.5424 8.6037 17.3943 8.26659 17.1906C7.93048 16.9874 7.75543 16.7478 7.75543 16.4596H7.43012ZM12.3765 18.2114C12.9401 18.2114 14.1492 18.1827 15.2212 17.9664C15.7559 17.8585 16.2701 17.7014 16.6546 17.469C17.0402 17.236 17.3228 16.9084 17.3228 16.4596H16.9975C16.9975 16.7478 16.8225 16.9874 16.4864 17.1906C16.1493 17.3943 15.6779 17.5424 15.1569 17.6475C14.1176 17.8572 12.9348 17.8861 12.3765 17.8861V18.2114ZM17.3228 16.4596C17.3228 14.4616 16.1234 12.6412 14.3483 11.8522L14.2162 12.1495C15.8736 12.8861 16.9975 14.59 16.9975 16.4596H17.3228Z" fill="#151921"/>
    </g>
    <defs>
        <clipPath id="clip0_3_171">
            <rect width="22.7719" height="22.7719" fill="white" transform="translate(0.922821 0.472748)"/>
        </clipPath>
    </defs>
</svg>
