<svg width="6" height="11" viewBox="0 0 6 11" fill="none" xmlns="http://www.w3.org/2000/svg">
    <path d="M0.423106 0.530428C0.285545 0.668031 0.208267 0.854634 0.208267 1.0492C0.208267 1.24377 0.285545 1.43038 0.423106 1.56798L4.05527 5.20015L0.423106 8.83231C0.289443 8.97071 0.215483 9.15606 0.217155 9.34845C0.218827 9.54084 0.295997 9.72488 0.432044 9.86093C0.568091 9.99698 0.75213 10.0741 0.944522 10.0758C1.13691 10.0775 1.32227 10.0035 1.46066 9.86987L5.6116 5.71892C5.74916 5.58132 5.82644 5.39472 5.82644 5.20015C5.82644 5.00558 5.74916 4.81897 5.6116 4.68137L1.46066 0.530428C1.32306 0.392867 1.13645 0.31559 0.941882 0.31559C0.747312 0.31559 0.560708 0.392867 0.423106 0.530428Z" fill="#151921"/>
</svg>
