<svg width="18" height="17" viewBox="0 0 18 17" fill="none" xmlns="http://www.w3.org/2000/svg">
    <path fill-rule="evenodd" clip-rule="evenodd" d="M15.9196 15.6181C15.7291 15.8076 15.3984 15.8076 15.2079 15.6181L11.1519 11.5621C11.1167 11.5279 11.1039 11.5043 11.1019 11.5043C11.1029 11.4935 11.1167 11.3894 11.4042 11.1027C11.6899 10.8162 11.7939 10.8024 11.7969 10.8004C11.8037 10.8024 11.8273 10.8162 11.8635 10.8514L15.9186 14.9075C16.0138 15.0027 16.0658 15.1294 16.0658 15.2638C16.0668 15.3962 16.0138 15.5249 15.9196 15.6181M1.81052 6.8282C1.81052 3.98758 4.12096 1.67715 6.96158 1.67715C9.80195 1.67715 12.1126 3.98758 12.1126 6.8282C12.1126 9.66857 9.80094 11.9793 6.96158 11.9793C4.12096 11.9793 1.81052 9.66857 1.81052 6.8282M16.6302 14.1973L12.5745 10.1417C12.4874 10.0542 12.3881 9.97985 12.2803 9.9208C12.8288 8.98257 13.1175 7.91469 13.1175 6.82822C13.1175 3.43312 10.3554 0.672211 6.96152 0.672211C3.56642 0.672211 0.805511 3.43312 0.805511 6.82822C0.805511 10.2221 3.56642 12.9842 6.96152 12.9842C8.16961 12.9842 9.29653 12.6327 10.2486 12.0282C10.3006 12.1136 10.3644 12.196 10.4418 12.2734L14.4985 16.3291C14.7802 16.6128 15.1638 16.7718 15.5644 16.7708C15.9649 16.7718 16.3486 16.6128 16.6302 16.3291C16.9139 16.0474 17.073 15.6637 17.0719 15.2632C17.073 14.8637 16.9139 14.48 16.6302 14.1973" fill="#878B91"/>
</svg>
